<svg fill="#000000" xmlns="http://www.w3.org/2000/svg"  viewBox="0 0 50 50" width="50px" height="50px"><path d="M 23.09375 4 C 17.191406 4 14.207031 7.179688 13.46875 8.09375 C 11.730469 8.476563 5.140625 10.542969 4.125 20.34375 C 3.769531 20.734375 0 25.035156 0 31.1875 C 0 34.992188 1.097656 37.992188 3.25 40.0625 C 5.722656 42.4375 8.859375 42.882813 10.28125 42.96875 C 10.75 44.058594 11.945313 46 14.3125 46 C 17.292969 46 19.054688 43.699219 19.59375 42.875 C 20.300781 42.957031 21.050781 43 21.8125 43 C 26.332031 43 29.433594 41.632813 31.5 40.15625 C 31.777344 40.386719 32.128906 40.671875 32.84375 41.3125 C 33.789063 42.160156 34.882813 43.214844 35.1875 43.65625 C 35.359375 44.011719 35.722656 44.230469 36.117188 44.21875 C 36.511719 44.207031 36.863281 43.964844 37.011719 43.601563 C 37.164063 43.234375 37.085938 42.816406 36.8125 42.53125 C 36.21875 41.671875 35.167969 40.691406 34.1875 39.8125 C 33.589844 39.277344 33.402344 39.132813 33.0625 38.84375 C 34.273438 37.660156 34.820313 36.664063 34.875 36.5625 C 35.132813 36.074219 34.953125 35.476563 34.46875 35.21875 C 33.984375 34.960938 33.386719 35.140625 33.125 35.625 C 33.007813 35.84375 30.148438 41 21.8125 41 C 10.21875 41 6 30.234375 6 23 C 6 11.113281 13.800781 10.039063 14.125 10 C 14.328125 9.976563 14.480469 9.871094 14.625 9.75 C 14.675781 9.71875 14.734375 9.667969 14.78125 9.625 C 14.789063 9.613281 14.804688 9.605469 14.8125 9.59375 C 14.851563 9.554688 14.90625 9.515625 14.9375 9.46875 C 14.957031 9.441406 16.488281 7.265625 20 6.375 C 20.078125 8.632813 20.867188 10.492188 22.34375 11.9375 C 24.566406 14.117188 27.796875 14.761719 29.625 14.9375 C 29.328125 15.992188 29 17.589844 29 19.5 C 29 23.164063 31.304688 26.941406 35.25 27.8125 C 35.089844 28.179688 35 28.578125 35 29 C 35 30.644531 36.355469 32 38 32 C 38.117188 32 38.226563 31.984375 38.34375 31.96875 C 39.042969 33.234375 40.984375 36.347656 44.21875 38.09375 C 44.710938 38.359375 45.328125 38.179688 45.59375 37.6875 C 45.859375 37.195313 45.679688 36.578125 45.1875 36.3125 C 42.65625 34.945313 40.867188 32.285156 40.15625 31.09375 C 40.683594 30.550781 41 29.808594 41 29 C 41 28.34375 40.800781 27.714844 40.4375 27.21875 C 41.992188 26.359375 42.6875 24.953125 42.90625 23.8125 C 45.707031 23.035156 50 20.472656 50 15.09375 C 50 10.933594 47.507813 9 45.8125 9 C 44.058594 9 42 10.21875 42 13.6875 C 42 13.976563 41.984375 14.261719 41.96875 14.5 C 40.105469 10.640625 35.148438 4 23.09375 4 Z M 17.5 12.71875 C 17.054688 12.6875 16.660156 12.792969 16.34375 13.0625 C 15.5 13.777344 15.652344 15.339844 16.6875 16.5625 C 17.722656 17.785156 19.25 18.214844 20.09375 17.5 C 20.9375 16.785156 20.753906 15.222656 19.71875 14 C 19.070313 13.234375 18.242188 12.773438 17.5 12.71875 Z M 9.125 18.28125 C 8.871094 18.316406 8.628906 18.433594 8.4375 18.59375 C 7.679688 19.234375 7.847656 20.675781 8.8125 21.8125 C 9.777344 22.949219 11.179688 23.328125 11.9375 22.6875 C 12.695313 22.046875 12.527344 20.605469 11.5625 19.46875 C 10.839844 18.617188 9.882813 18.175781 9.125 18.28125 Z M 27.4375 18.59375 C 26.964844 18.59375 25.894531 18.65625 24.84375 19.21875 C 24.832031 19.222656 24.824219 19.214844 24.8125 19.21875 L 24.8125 19.25 C 22.652344 20.421875 22.125 22.875 22.125 22.875 C 22.007813 23.234375 22.097656 23.628906 22.363281 23.894531 C 22.628906 24.160156 23.023438 24.257813 23.382813 24.140625 C 23.742188 24.023438 24.003906 23.714844 24.0625 23.34375 C 24.0625 23.34375 24.347656 22.351563 25 21.59375 C 25.011719 21.605469 25.019531 21.613281 25.03125 21.625 C 25.03125 21.625 26.8125 23.769531 26.8125 27 C 26.8125 31.230469 23.8125 34.0625 23.8125 34.0625 C 23.40625 34.441406 23.386719 35.078125 23.765625 35.484375 C 24.144531 35.890625 24.78125 35.910156 25.1875 35.53125 C 25.1875 35.53125 28.8125 32.167969 28.8125 27 C 28.8125 23.636719 27.277344 21.316406 26.78125 20.65625 C 27.207031 20.589844 27.53125 20.59375 27.53125 20.59375 C 28.082031 20.636719 28.566406 20.222656 28.609375 19.671875 C 28.652344 19.121094 28.238281 18.636719 27.6875 18.59375 C 27.6875 18.59375 27.59375 18.59375 27.4375 18.59375 Z M 14 24 C 12.855469 24 11.679688 24.324219 10.71875 24.96875 C 9.757813 25.613281 9 26.679688 9 28 C 9 29.234375 9.457031 30.308594 10.21875 31 C 10.980469 31.691406 11.992188 32 13 32 C 14.367188 32 15.5 31.65625 15.5 31.65625 C 15.859375 31.566406 16.144531 31.285156 16.230469 30.925781 C 16.320313 30.5625 16.203125 30.183594 15.925781 29.9375 C 15.644531 29.691406 15.253906 29.617188 14.90625 29.75 C 14.90625 29.75 14.035156 30 13 30 C 12.410156 30 11.902344 29.808594 11.5625 29.5 C 11.222656 29.191406 11 28.765625 11 28 C 11 27.417969 11.28125 27.003906 11.84375 26.625 C 12.40625 26.246094 13.242188 26 14 26 C 14.867188 26 15.480469 26.1875 15.875 26.34375 C 16.269531 26.5 16.375 26.59375 16.375 26.59375 C 16.804688 26.9375 17.4375 26.871094 17.78125 26.4375 C 18.125 26.007813 18.058594 25.375 17.625 25.03125 C 17.625 25.03125 17.230469 24.710938 16.625 24.46875 C 16.019531 24.226563 15.132813 24 14 24 Z M 38 28 C 38.5625 28 39 28.4375 39 29 C 39 29.5625 38.5625 30 38 30 C 37.4375 30 37 29.5625 37 29 C 37 28.4375 37.4375 28 38 28 Z"/></svg>