<svg fill="#000000" xmlns="http://www.w3.org/2000/svg"  viewBox="0 0 50 50" width="50px" height="50px"><path d="M 26.5 5 C 22.886719 5 19.605469 7.046875 18 10.257813 C 12.265625 11.6875 8 19.179688 8 28 C 8 29.988281 8.429688 32.722656 8.878906 35.621094 C 9.40625 38.988281 10 42.808594 10 46 C 10 46.277344 9.980469 46.582031 9.953125 46.90625 C 9.902344 47.460938 10.308594 47.945313 10.859375 47.996094 C 10.910156 48 10.953125 47.984375 11 47.980469 L 11 48 L 18 48 C 18.449219 48 18.855469 47.695313 18.96875 47.242188 C 19.371094 45.644531 20.328125 44.589844 21.34375 43.472656 C 22.648438 42.035156 24 40.546875 24 38 C 24 35.609375 22.324219 34.363281 20.847656 33.261719 C 19.320313 32.121094 18 31.136719 18 29 C 18 27.835938 19.085938 25.5625 20.136719 23.371094 C 21.152344 21.238281 22.199219 19.050781 22.699219 17.109375 L 32 26.414063 L 32 29 C 32 30.648438 31.175781 31.679688 30.21875 32.875 C 29.179688 34.175781 28 35.648438 28 38 C 28 41.082031 29.578125 42.65625 31.40625 44.484375 C 32.125 45.203125 32.921875 46.015625 33.722656 47 C 33.882813 47.195313 34.042969 47.386719 34.199219 47.597656 C 34.394531 47.863281 34.695313 47.980469 35 47.980469 L 35 48 L 40.636719 48 C 40.65625 48 40.679688 48 40.699219 48 C 41.214844 48 41.65625 47.605469 41.695313 47.078125 C 42 43.230469 42 38.734375 42 33.972656 L 42 33.5 C 42 25.144531 40.128906 17.125 36.863281 11.5 C 34.988281 8.265625 31.058594 5 26.5 5 Z M 22 24 C 21.449219 24 21 24.449219 21 25 C 21 25.550781 21.449219 26 22 26 C 22.550781 26 23 25.550781 23 25 C 23 24.449219 22.550781 24 22 24 Z M 28 24 C 27.449219 24 27 24.449219 27 25 C 27 25.550781 27.449219 26 28 26 C 28.550781 26 29 25.550781 29 25 C 29 24.449219 28.550781 24 28 24 Z M 23 27.527344 L 23 30 L 23.875 28.691406 C 24.21875 28.886719 24.601563 29 25 29 C 25.402344 29 25.78125 28.886719 26.125 28.691406 L 27 30 L 27 27.527344 C 26.441406 27.765625 25.722656 28 25 28 C 24.277344 28 23.554688 27.765625 23 27.527344 Z M 26.5 37 C 26.222656 37 26 37.222656 26 37.5 C 26 37.777344 26.222656 38 26.5 38 C 26.777344 38 27 37.777344 27 37.5 C 27 37.222656 26.777344 37 26.5 37 Z M 26.5 39 C 26.222656 39 26 39.222656 26 39.5 C 26 39.777344 26.222656 40 26.5 40 C 26.777344 40 27 39.777344 27 39.5 C 27 39.222656 26.777344 39 26.5 39 Z"/></svg>