<svg fill="#000000" xmlns="http://www.w3.org/2000/svg"  viewBox="0 0 50 50" width="50px" height="50px"><path d="M 37 1 C 35.27 1 33.8545 1.3964375 32.0625 1.8984375 C 28.8945 2.7854375 24.554 4 15 4 C 11.48486 4 9.6354609 5.5853623 8.7363281 7.2714844 C 8.4323022 6.837638 8.1225426 6.4584801 7.8320312 6.1679688 C 7.1127503 5.4486878 6.4472656 5.1054687 6.4472656 5.1054688 A 1.0001 1.0001 0 0 0 5.9648438 4.9941406 A 1.0001 1.0001 0 0 0 5.5527344 6.8945312 C 5.5527344 6.8945312 5.8872496 7.0513122 6.4179688 7.5820312 C 6.6932636 7.8573262 6.9696795 8.5258131 7.265625 9 L 5 9 A 1.0001 1.0001 0 1 0 5 11 L 6.5292969 11 C 5.4371241 12.689928 5 14.995584 5 17 C 5 21.5687 6.1028051 24.952645 6.7070312 26.486328 C 6.2695999 27.228426 6 28.081003 6 29 C 6 31.069272 7.2753706 32.853949 9.078125 33.611328 C 9.2443091 34.695519 10 40.01328 10 48 A 1.0001 1.0001 0 1 0 12 48 C 12 41.237457 11.437231 36.150413 11.150391 33.988281 C 11.548043 33.973625 11.919327 33.913622 12.25 33.828125 A 1.0004882 1.0004882 0 1 0 11.75 31.890625 C 11.481478 31.960056 11.235569 32 11 32 C 9.3315161 32 8 30.668484 8 29 C 8 27.331516 9.3315161 26 11 26 C 12.111845 26 13.056224 26.60165 13.580078 27.501953 A 1.0001 1.0001 0 1 0 15.308594 26.498047 C 15.040688 26.03762 14.694928 25.629416 14.298828 25.275391 C 14.687921 24.522681 15 23.524533 15 22 C 15 19.741 14.470531 18.001578 14.144531 17.142578 C 14.521531 16.551578 15 15.506 15 14 C 15 12.981 14.781437 12.174219 14.523438 11.574219 C 16.595437 11.018219 21.536 10 30 10 C 34.250006 10 36.061582 11.511746 36.228516 11.658203 C 36.401548 11.937839 38 14.578905 38 17 A 1.0001 1.0001 0 0 0 38.552734 17.894531 C 38.552734 17.894531 39.981686 18.663636 39.994141 19.986328 A 1.0001 1.0001 0 0 0 39.841797 20 L 34.259766 20 C 34.163257 19.609293 34.064242 19.223555 33.980469 18.804688 A 1.0001 1.0001 0 0 0 32.984375 17.986328 A 1.0001 1.0001 0 0 0 32.019531 19.195312 C 32.537131 21.783313 33.313939 23.85296 33.941406 25.484375 C 34.568873 27.11579 35 28.333333 35 29 C 35 29.333333 34.91403 29.820999 34.568359 30.205078 C 34.222688 30.589158 33.559524 31 32 31 C 31.166667 31 30.578009 30.79584 30.197266 30.605469 C 29.816523 30.415097 29.707031 30.292969 29.707031 30.292969 A 1.0001 1.0001 0 1 0 28.292969 31.707031 C 28.292969 31.707031 28.683477 32.084903 29.302734 32.394531 C 29.921991 32.70416 30.833333 33 32 33 C 33.940476 33 35.277312 32.410842 36.056641 31.544922 C 36.835969 30.679001 37 29.666667 37 29 C 37 28.000541 36.6801 27.029116 36.257812 25.923828 C 36.499056 25.969814 36.746039 26 37 26 C 37.713878 26 38.376702 25.79515 38.958984 25.462891 C 38.981926 25.61026 39 25.778631 39 26 L 39 29 C 39 30.166667 39.360505 30.960474 39.630859 31.433594 C 39.901214 31.906714 40 31.972222 40 32.5 C 40 33 39.668603 33.533102 38.365234 34.076172 C 37.061866 34.619242 34.916667 35 32 35 C 28.083333 35 25.971538 34.519158 24.566406 34.050781 C 24.187501 33.924479 23.853301 33.791338 23.537109 33.662109 A 1.0001 1.0001 0 0 0 23.197266 33.527344 C 22.487396 33.239005 21.840349 33 21 33 C 20.333333 33 19.594459 33.161518 18.984375 33.669922 C 18.374291 34.178325 18 35.027778 18 36 C 18 37.083333 18.554604 38.037554 19.326172 38.771484 C 20.097739 39.505414 21.103216 40.079036 22.244141 40.548828 C 22.316245 40.578518 22.393601 40.60398 22.466797 40.632812 A 1.0001 1.0001 0 0 0 22.84375 40.775391 C 24.330487 41.318395 26.007388 41.682918 27.693359 41.863281 A 1.0001 1.0001 0 0 0 28.0625 41.910156 C 28.713048 41.968867 29.362876 42 30 42 C 31.128507 42 32.089914 41.943481 32.941406 41.865234 A 1.0001 1.0001 0 0 0 33.212891 41.845703 A 1.0001 1.0001 0 0 0 33.214844 41.845703 C 34.181194 41.747367 34.972497 41.614185 35.591797 41.476562 C 36.346787 41.308788 36.461678 41.226872 36.757812 41.111328 C 36.861503 41.156099 37 41.133348 37 41.5 C 37 42.166667 36.815057 42.263219 36.400391 42.574219 C 36.193057 42.729719 35.928069 42.887225 35.636719 43.154297 C 35.345368 43.421368 35 43.916667 35 44.5 L 35 48 A 1.0001 1.0001 0 1 0 37 48 L 37 44.619141 C 37.08759 44.540981 37.312362 44.391217 37.599609 44.175781 C 38.184943 43.736781 39 42.833333 39 41.5 C 39 40.50809 38.464551 39.883297 38 39.503906 L 38 36.3125 C 38.40392 36.196199 38.786816 36.068807 39.134766 35.923828 C 40.831397 35.216898 42 34 42 32.5 C 42 31.527778 41.598786 30.843286 41.369141 30.441406 C 41.139495 30.039526 41 29.833333 41 29 L 41 26 C 41 25.047474 40.786387 24.358817 40.501953 23.886719 C 40.809373 23.321296 41 22.684642 41 22 L 41 21.720703 C 41.474997 21.453997 42 20.802507 42 20 C 42 17.83362 40.55794 16.841223 39.925781 16.460938 C 39.792675 14.432883 39.0186 12.659859 38.447266 11.560547 C 40.082633 10.82067 42 9.1393004 42 6 C 42 2.718 39.485 1 37 1 z M 28.984375 17.986328 A 1.0001 1.0001 0 0 0 28 19 C 28 19 27.98621 19.291248 27.855469 19.552734 C 27.724726 19.81422 27.666667 20 27 20 C 22.958333 20 20.65526 20.249417 19.304688 20.519531 C 18.6294 20.654588 18.189988 20.793856 17.886719 20.923828 C 17.735084 20.988818 17.617389 21.052251 17.521484 21.113281 C 17.425584 21.174311 17.292969 21.292969 17.292969 21.292969 A 1.0001 1.0001 0 0 0 18.160156 22.994141 C 18.255046 23.433912 18.384827 23.945204 18.691406 24.490234 C 19.393565 25.738517 20.953704 27 23.5 27 C 26.12037 27 27.684731 25.387663 28.349609 23.910156 C 28.968103 22.535727 28.953794 21.382816 28.955078 21.203125 C 29.226719 20.959711 29.512012 20.712304 29.644531 20.447266 C 30.013788 19.708752 30 19 30 19 A 1.0001 1.0001 0 0 0 28.984375 17.986328 z M 37 22 L 39 22 C 39 23.116666 38.116666 24 37 24 C 35.950435 24 35.117106 23.216315 35.019531 22.195312 A 1 1 0 0 0 36 23 A 1 1 0 0 0 37 22 z M 26.769531 22.015625 C 26.710001 22.41381 26.761931 22.564244 26.525391 23.089844 C 26.065269 24.112337 25.37963 25 23.5 25 C 21.546296 25 20.856435 24.261483 20.433594 23.509766 C 20.137063 22.9826 20.158667 22.720932 20.128906 22.451172 C 20.59597 22.366486 21.24462 22.284908 22.023438 22.212891 A 1 1 0 0 0 23 23 A 1 1 0 0 0 23.996094 22.083984 C 24.805002 22.048174 25.694421 22.01997 26.769531 22.015625 z M 11 28 A 1 1 0 0 0 11 30 A 1 1 0 0 0 11 28 z M 21 35 C 21.300486 35 21.613318 35.094451 22 35.236328 L 22 38.216797 C 21.474255 37.930533 21.025582 37.627135 20.705078 37.322266 C 20.195396 36.837446 20 36.416667 20 36 C 20 35.472222 20.125709 35.321675 20.265625 35.205078 C 20.405541 35.088482 20.666667 35 21 35 z M 24 35.96875 C 24.779775 36.225343 25.743297 36.477181 27 36.667969 L 27 39.744141 C 25.945723 39.582588 24.933033 39.345829 24 39.041016 L 24 35.96875 z M 36 36.736328 L 36 39.294922 C 35.784094 39.362683 35.563013 39.43348 35.158203 39.523438 C 34.838897 39.594393 34.439446 39.662774 34 39.728516 L 34 36.9375 C 34.712616 36.894034 35.381661 36.827774 36 36.736328 z M 29 36.884766 C 29.891091 36.95385 30.867271 37 32 37 L 32 39.935547 C 31.39398 39.973802 30.743768 40 30 40 C 29.673926 40 29.334612 39.969279 29 39.951172 L 29 36.884766 z"/></svg>