<svg fill="#000000" xmlns="http://www.w3.org/2000/svg"  viewBox="0 0 50 50" width="50px" height="50px"><path d="M 35 1 C 29.866 1 21.705328 2.6761875 17.111328 8.2421875 C 16.166328 6.8531875 14.135 5 10 5 C 3.393 5 1.2042812 10.406719 1.1132812 10.636719 C 1.0132812 10.891719 1.024625 11.175828 1.140625 11.423828 C 1.256625 11.671828 1.4685156 11.861266 1.7285156 11.947266 L 3.3203125 12.478516 C 2.3213125 13.904516 1 16.618 1 21 C 1 24.7 2.3091719 27.843766 3.5761719 30.884766 C 4.8221719 33.874766 6 36.7 6 40 C 6 45.406 4.3340781 47.294781 4.3300781 47.300781 C 4.0490781 47.588781 3.9680469 48.017672 4.1230469 48.388672 C 4.2790469 48.759672 4.644875 49 5.046875 49 C 5.500875 49 15.019875 48.926359 19.796875 43.568359 C 17.659875 42.718359 16.130484 40.680484 16.021484 38.271484 C 11.223484 35.149484 7 29.294 7 23 C 7 20.194 8.0014687 17.962953 9.3554688 16.251953 C 9.6314687 16.901953 10.069609 17.45625 10.599609 17.90625 C 9.6606094 19.25125 9 20.939 9 23 C 9 28.937952 13.472153 34.617304 18.09375 37.183594 C 18.038213 37.448117 18 37.71889 18 38 C 18 40.206 19.794 42 22 42 L 22.378906 42 C 22.907906 43.096 23 43.502 23 44.625 C 23 46.413 22.297 47.281891 22.25 47.337891 C 21.888 47.746891 21.922125 48.372234 22.328125 48.740234 C 22.520125 48.915234 22.76 49 23 49 C 23.272 49 23.543234 48.889875 23.740234 48.671875 C 23.869234 48.529875 25 47.209 25 44.625 C 25 42.947 24.775531 42.316734 23.894531 40.552734 C 23.724531 40.213734 23.379 40 23 40 L 22 40 C 20.897 40 20 39.103 20 38 C 20 37.335 20.324172 36.744859 20.826172 36.380859 C 20.463417 35.977294 20.262381 35.690701 20.203125 35.603516 C 20.194125 35.590516 20.171969 35.559687 20.167969 35.554688 C 20.099231 35.451581 20.059622 35.338736 20.033203 35.224609 C 20.025014 35.188818 20.021731 35.15335 20.017578 35.117188 C 20.008497 35.039241 20.010426 34.962017 20.019531 34.884766 C 20.024561 34.843509 20.02702 34.802031 20.037109 34.761719 C 20.063155 34.656654 20.101102 34.553359 20.160156 34.460938 C 20.232396 34.34788 20.326662 34.247069 20.445312 34.167969 C 20.903312 33.860969 21.523078 33.985359 21.830078 34.443359 C 21.848078 34.468359 23.585 37 26 37 C 26.387 37 26.725625 36.760156 26.890625 36.410156 C 27.055625 36.060156 26.988187 35.629078 26.742188 35.330078 C 26.733187 35.320078 25.625469 34.000687 24.980469 30.804688 C 24.882469 30.317688 24.781984 29.846672 24.708984 29.388672 C 23.999984 24.999672 21 23 21 23 C 23 23 24.542734 23.889531 24.552734 23.894531 C 24.901734 24.068531 25.322953 24.02425 25.626953 23.78125 C 25.931953 23.53625 26.064703 23.136813 25.970703 22.757812 C 25.899703 22.478813 25 20 23 19 C 25 19 28.735 20.46825 30.375 21.78125 C 30.920057 22.217374 31.453619 22.716057 31.986328 23.240234 C 31.957209 23.774894 31.712451 25.374496 29.683594 26.050781 A 1.0001 1.0001 0 0 0 29.054688 26.638672 C 28.905598 26.806562 28.804728 26.869428 28.611328 27.244141 C 28.29299 27.86092 28 28.780637 28 30 C 28 32.666667 30.5 36 35 36 C 36.377006 36 37.536963 35.715691 38.494141 35.287109 C 38.520373 35.319336 38.545911 35.357619 38.572266 35.386719 C 38.854994 35.698898 39.13862 35.900592 39.369141 36.087891 C 39.830183 36.462487 40 36.597756 40 37 C 40 37.524 39.813522 38 38.875 38 C 37.984848 38 37.894531 37.552734 37.894531 37.552734 A 1.0001163 1.0001163 0 1 0 36.105469 38.447266 C 36.105469 38.447266 37.015152 40 38.875 40 C 40.758478 40 42 38.476 42 37 C 42 35.777244 41.169817 34.975013 40.630859 34.537109 C 40.445827 34.386771 40.34635 34.296219 40.234375 34.197266 C 40.432056 34.031815 40.617301 33.86455 40.78125 33.695312 C 41.241264 33.22046 41.557564 32.752624 41.800781 32.345703 C 42.189677 32.562546 42.589136 32.761135 43 32.941406 L 43 33 C 43 35.711141 43.71618 38.330368 43.947266 40.085938 C 41.491602 40.448886 41.267464 42 39.5 42 C 38 42 38 41 36 41 C 34 41 31 42 31 42 C 31 42 33.511812 45.336111 37 45.908203 L 37 48 A 1.0001 1.0001 0 1 0 39 48 L 39 46.013672 C 39.610212 45.911095 40.262369 45.624655 40.916016 44.957031 C 42.136627 44.907141 43.287985 44.673288 44.220703 44.103516 C 45.262377 43.467185 46.023436 42.337333 46.023438 41 C 46.023438 38.836241 45.15993 36.207434 45.027344 33.632812 C 45.960608 33.864711 46.945492 34 48 34 C 48.327 34 48.631359 33.837312 48.818359 33.570312 C 49.005359 33.302312 49.0495 32.957391 48.9375 32.650391 C 48.9275 32.625391 48 30.013 48 23 C 48 16.138 46.991031 11.704422 41.957031 8.8574219 C 43.725031 8.0184219 45.973953 8 46.001953 8 C 46.405953 7.999 46.769828 7.7548594 46.923828 7.3808594 C 47.077828 7.0068594 46.991078 6.5779687 46.705078 6.2929688 C 46.612078 6.1989687 44.353 4 39 4 C 36 4 32 6 32 6 C 33 4 34.367094 3.5131875 35.496094 2.8671875 C 35.890094 2.6421875 36.083797 2.1801875 35.966797 1.7421875 C 35.850797 1.3041875 35.454 1 35 1 z M 13.5 12 C 13.951 12 14.370375 12.124984 14.734375 12.333984 C 14.439375 13.108984 14.194531 13.928688 14.019531 14.804688 C 14.018531 14.813688 14.020531 14.820125 14.019531 14.828125 C 13.319531 15.230125 12.584625 15.746203 11.890625 16.408203 C 11.346625 15.950203 11 15.267 11 14.5 C 11 13.119 12.119 12 13.5 12 z M 33.544922 24.867188 C 33.863708 25.211796 34.176718 25.537561 34.501953 25.894531 C 34.662867 26.071058 34.831055 26.25145 34.994141 26.429688 C 34.981727 26.466767 34.968686 26.524845 34.853516 26.658203 C 34.704124 26.831183 34.530449 27 34 27 C 33.264124 27 32.819782 26.847701 32.3125 26.726562 C 32.91018 26.142315 33.295078 25.47436 33.544922 24.867188 z M 30.367188 28.265625 C 31.113227 28.599986 32.215876 28.97565 33.882812 28.994141 A 1.0001 1.0001 0 0 0 34 29 C 35.545518 29 36.574765 28.821717 37.15625 28.705078 C 38.085725 29.626256 39.069876 30.50177 40.130859 31.271484 C 39.959941 31.561968 39.7149 31.921565 39.34375 32.304688 C 38.524558 33.150305 37.233333 34 35 34 C 31.5 34 30 31.333333 30 30 C 30 29.14533 30.193756 28.622363 30.367188 28.265625 z M 34 30 A 1 1 0 0 0 34 32 A 1 1 0 0 0 34 30 z"/></svg>