<svg fill="#000000" xmlns="http://www.w3.org/2000/svg"  viewBox="0 0 50 50" width="50px" height="50px"><path d="M 25 0 C 22.601563 0 17.195313 0.394531 13.59375 2.09375 L 13.1875 2.3125 L 13 2.8125 C 12.699219 4.011719 12.394531 5.292969 12.09375 7.09375 C 11.792969 8.59375 11.5 10.304688 11 12.40625 L 11.6875 12.09375 C 11.886719 11.992188 18 10 25 10 C 32 10 38.113281 11.992188 38.3125 12.09375 L 38.90625 12.3125 C 38.207031 9.3125 37.800781 7.113281 37.5 5.3125 C 37.300781 4.414063 37.199219 3.613281 37 2.8125 L 36.90625 2.3125 L 36.40625 2.09375 C 33.007813 0.59375 27.699219 0 25 0 Z M 25 15 C 21.199219 15 16.613281 15.386719 13.8125 15.6875 C 12.3125 15.886719 10.1875 16.3125 10.1875 16.3125 C 7.988281 17.011719 5.894531 17 4.09375 17 C 2.992188 17 1.792969 17.113281 1.09375 17.3125 C 0.894531 17.3125 0.707031 17.386719 0.40625 17.6875 C 0.304688 17.886719 0 18.300781 0 19 C 0 21.101563 2.6875 24.800781 7.1875 28 C 7.074219 28.453125 7 28.898438 7 29.3125 C 7 30.652344 7.253906 31.945313 7.875 33.03125 C 8.34375 33.847656 9.160156 34.425781 10.09375 34.71875 C 10.203125 37.132813 10.726563 38.300781 12.15625 40.53125 L 12.15625 40.5625 C 13.390625 42.414063 15.183594 44.714844 17.21875 46.59375 C 19.253906 48.472656 21.550781 50 24 50 L 26 50 C 28.441406 50 30.742188 48.492188 32.78125 46.625 C 34.8125 44.761719 36.605469 42.46875 37.84375 40.5625 C 37.847656 40.554688 37.839844 40.539063 37.84375 40.53125 C 39.089844 38.660156 39.734375 37.238281 39.875 34.75 C 40.796875 34.5 41.609375 34 42.09375 33.1875 C 42.734375 32.113281 43 30.753906 43 29.1875 C 43 28.757813 42.941406 28.335938 42.8125 27.90625 C 47.140625 24.726563 49.90625 21.078125 49.90625 19 C 50.007813 18.300781 49.699219 17.886719 49.5 17.6875 C 49.273438 17.460938 49.101563 17.355469 48.90625 17.3125 C 48.304688 17.210938 47.007813 17 45.90625 17 C 44.105469 17 42.011719 17.085938 39.8125 16.1875 C 39.8125 16.1875 36.789063 15.707031 34.1875 15.40625 C 31.585938 15.304688 28 15 25 15 Z M 47.8125 19.6875 C 47.214844 21.179688 45.140625 23.769531 41.875 26.15625 C 41.628906 25.886719 41.328125 25.640625 41 25.4375 L 41 22 C 44.199219 21.199219 46.59375 20.3125 47.59375 19.8125 Z M 2.1875 20 C 3.1875 20.5 5.40625 21.414063 8.90625 22.3125 L 8.90625 20.5625 C 8.9375 20.570313 8.96875 20.585938 9 20.59375 L 9 25.4375 C 8.382813 25.800781 7.886719 26.269531 7.59375 26.84375 C 7.71875 26.589844 7.835938 26.339844 8 26.09375 C 5 23.894531 2.988281 21.5 2.1875 20 Z M 37.15625 22.8125 L 38 27 L 39.8125 27 C 40.117188 27.121094 40.402344 27.382813 40.625 27.78125 C 40.871094 28.21875 41 28.78125 41 29.1875 C 41 30.523438 40.765625 31.585938 40.40625 32.1875 C 40.046875 32.789063 39.683594 33 39 33 L 38 33 L 38 34 C 38 35.53125 37.863281 36.378906 37.53125 37.15625 C 37.375 37.058594 37.195313 37 37 37 C 36.449219 37 36 37.449219 36 38 C 36 38.375 36.226563 38.671875 36.53125 38.84375 C 36.398438 39.039063 36.308594 39.207031 36.15625 39.4375 L 36.15625 39.46875 C 35.804688 40.007813 35.40625 40.597656 34.96875 41.1875 C 34.980469 41.125 35 41.066406 35 41 C 35 40.449219 34.550781 40 34 40 C 33.449219 40 33 40.449219 33 41 C 33 41.550781 33.449219 42 34 42 C 34.136719 42 34.253906 41.957031 34.375 41.90625 C 33.488281 43.035156 32.503906 44.179688 31.4375 45.15625 C 30.636719 45.890625 29.808594 46.523438 29 47 C 29 46.449219 28.550781 46 28 46 C 27.449219 46 27 46.449219 27 47 C 27 47.300781 27.132813 47.566406 27.34375 47.75 C 26.871094 47.902344 26.417969 48 26 48 L 24 48 C 23.585938 48 23.125 47.902344 22.65625 47.75 C 22.867188 47.566406 23 47.300781 23 47 C 23 46.449219 22.550781 46 22 46 C 21.457031 46 21.015625 46.429688 21 46.96875 C 20.203125 46.488281 19.390625 45.859375 18.59375 45.125 C 17.539063 44.148438 16.546875 43.019531 15.65625 41.90625 C 15.769531 41.949219 15.871094 42 16 42 C 16.550781 42 17 41.550781 17 41 C 17 40.449219 16.550781 40 16 40 C 15.449219 40 15 40.449219 15 41 C 15 41.046875 15.023438 41.082031 15.03125 41.125 C 14.597656 40.550781 14.191406 39.988281 13.84375 39.46875 C 13.835938 39.457031 13.851563 39.449219 13.84375 39.4375 C 13.6875 39.195313 13.601563 39.046875 13.46875 38.84375 C 13.773438 38.671875 14 38.375 14 38 C 14 37.449219 13.550781 37 13 37 C 12.796875 37 12.625 37.085938 12.46875 37.1875 C 12.097656 36.398438 12 35.664063 12 34 L 12 33 L 11 33 C 10.382813 33 10.003906 32.726563 9.625 32.0625 C 9.246094 31.398438 9 30.375 9 29.3125 C 9 28.878906 9.136719 28.246094 9.375 27.78125 C 9.589844 27.359375 9.835938 27.097656 10.125 27 L 12 27 L 12.78125 23.0625 C 16.511719 23.671875 20.679688 24.078125 25 24 L 25.03125 24 C 29.207031 23.996094 33.308594 23.503906 37.15625 22.8125 Z M 18 25 C 15.300781 25 14 29 14 29 C 15.300781 28 16.699219 27 18 27 L 21 27 C 21.601563 27 22 26.5 22 26 C 22 25.398438 21.5 25 21 25 Z M 29 25 C 28.398438 25 28 25.5 28 26 C 28 26.601563 28.5 27 29 27 L 34 27 C 35.101563 27 36 26.101563 36 25 Z M 19 28 C 18.398438 28 17.699219 28.195313 17 28.59375 C 17.101563 29.394531 17.699219 30 18.5 30 C 19.300781 30 20 29.300781 20 28.5 L 20 28.3125 C 19.898438 28.511719 19.699219 28.6875 19.5 28.6875 C 19.199219 28.6875 19 28.488281 19 28.1875 Z M 30 28 L 30 28.5 C 30 29.300781 30.699219 30 31.5 30 C 32.300781 30 33 29.300781 33 28.5 L 33 28.40625 C 32.898438 28.605469 32.699219 28.6875 32.5 28.6875 C 32.199219 28.6875 32 28.488281 32 28.1875 L 32 28 Z M 16 34 C 15.449219 34 15 34.449219 15 35 C 15 35.550781 15.449219 36 16 36 C 16.550781 36 17 35.550781 17 35 C 17 34.449219 16.550781 34 16 34 Z M 34 34 C 33.449219 34 33 34.449219 33 35 C 33 35.550781 33.449219 36 34 36 C 34.550781 36 35 35.550781 35 35 C 35 34.449219 34.550781 34 34 34 Z M 19 37 C 18.449219 37 18 37.449219 18 38 C 18 38.550781 18.449219 39 19 39 C 19.550781 39 20 38.550781 20 38 C 20 37.449219 19.550781 37 19 37 Z M 31 37 C 30.449219 37 30 37.449219 30 38 C 30 38.550781 30.449219 39 31 39 C 31.550781 39 32 38.550781 32 38 C 32 37.449219 31.550781 37 31 37 Z M 21.8125 39 C 21.261719 39.050781 20.855469 39.542969 20.90625 40.09375 C 20.957031 40.644531 21.449219 41.050781 22 41 L 28 41 C 28.359375 41.003906 28.695313 40.816406 28.878906 40.503906 C 29.058594 40.191406 29.058594 39.808594 28.878906 39.496094 C 28.695313 39.183594 28.359375 38.996094 28 39 L 22 39 C 21.96875 39 21.9375 39 21.90625 39 C 21.875 39 21.84375 39 21.8125 39 Z M 19 43 C 18.449219 43 18 43.449219 18 44 C 18 44.550781 18.449219 45 19 45 C 19.550781 45 20 44.550781 20 44 C 20 43.449219 19.550781 43 19 43 Z M 25 43 C 24.449219 43 24 43.449219 24 44 C 24 44.550781 24.449219 45 25 45 C 25.550781 45 26 44.550781 26 44 C 26 43.449219 25.550781 43 25 43 Z M 31 43 C 30.449219 43 30 43.449219 30 44 C 30 44.550781 30.449219 45 31 45 C 31.550781 45 32 44.550781 32 44 C 32 43.449219 31.550781 43 31 43 Z"/></svg>