<svg fill="#000000" xmlns="http://www.w3.org/2000/svg"  viewBox="0 0 50 50" width="50px" height="50px"><path d="M 25.5 0 C 24.119 0 23 1.119 23 2.5 C 23 2.885 23.094 3.2462656 23.25 3.5722656 C 22.752 3.9322656 22.376828 4.4402031 22.173828 5.0332031 C 21.540828 5.0932031 20.956797 5.3091563 20.466797 5.6601562 C 19.849797 4.6661562 18.756 4 17.5 4 C 17.183 4 16.882797 4.0567656 16.591797 4.1347656 C 16.144797 3.4527656 15.376 3 14.5 3 C 13.119 3 12 4.119 12 5.5 C 12 6.725 12.883875 7.739125 14.046875 7.953125 C 14.104875 8.394125 14.241266 8.8066875 14.447266 9.1796875 C 13.806266 9.3836875 13.250125 9.7596719 12.828125 10.263672 C 12.418125 10.095672 11.971 10 11.5 10 C 10.668 10 9.9135 10.302109 9.3125 10.787109 C 8.8575 10.305109 8.216 10 7.5 10 C 6.119 10 5 11.119 5 12.5 C 5 13.881 6.119 15 7.5 15 C 7.773 15 8.0303906 14.945234 8.2753906 14.865234 C 8.5133906 15.426234 8.9019062 15.900578 9.3789062 16.267578 C 8.8769062 16.751578 8.5015781 17.354344 8.2675781 18.027344 C 8.1785781 18.018344 8.091 18 8 18 C 6.343 18 5 19.343 5 21 C 5 22.657 6.343 24 8 24 C 8.017 24 8.0337813 23.994141 8.0507812 23.994141 C 8.0267812 24.160141 8 24.327 8 24.5 C 8 25.783779 8.6979913 26.894815 9.7285156 27.503906 C 8.7014038 28.116449 8 29.22666 8 30.5 C 8 31.771182 8.6984146 32.88091 9.7226562 33.494141 C 9.3124407 34.261807 9 35.366055 9 37 C 9 42.533333 13.21875 47.625 13.21875 47.625 A 1.0004882 1.0004882 0 1 0 14.78125 46.375 C 14.78125 46.375 11 41.466667 11 37 C 11 35.392857 11.33978 34.605564 11.582031 34.242188 C 11.68026 34.094844 11.746552 34.044372 11.800781 34 L 13 34 A 1.0001 1.0001 0 1 0 13 32 L 11.601562 32 A 1.0001 1.0001 0 0 0 11.546875 31.996094 A 1.0001 1.0001 0 0 0 11.474609 31.998047 C 10.646249 31.984617 10 31.332125 10 30.5 C 10 29.659188 10.659188 29 11.5 29 C 11.991074 29 12.411174 29.233143 12.691406 29.603516 A 1.0001 1.0001 0 0 0 14.498047 29 L 16.085938 29 A 1.5 1.5 0 0 0 17.5 30 A 1.5 1.5 0 0 0 18.912109 29 L 22 29 L 22 31 A 1.0001 1.0001 0 0 0 23 32 L 33 32 A 1.0001 1.0001 0 0 0 34 31 L 34 29 L 37.736328 29 C 38.44475 29.389707 38.807663 29.788567 39.121094 30.222656 C 39.425461 30.644192 39.68198 31.162067 40.208984 31.628906 A 1.0001 1.0001 0 0 0 40.570312 31.910156 C 41.253141 32.370613 41.952772 32.566513 42.410156 32.806641 C 42.657875 32.936693 42.817219 33.062775 42.892578 33.15625 C 42.967938 33.249725 43 33.298878 43 33.5 C 43 33.639928 42.977445 33.692236 42.939453 33.738281 A 1.0001 1.0001 0 0 0 42.851562 33.816406 C 42.745927 33.890925 42.502185 34 42 34 C 41.590278 34 41.223786 34.154953 40.980469 34.304688 C 40.737151 34.45442 40.580262 34.591841 40.443359 34.691406 C 40.169554 34.890537 40.027778 35 39.5 35 C 38.972222 35 38.949212 34.928119 38.6875 34.71875 C 38.425788 34.509381 37.833333 34 37 34 L 35.5 34 C 35.166667 34 34.894531 33.552734 34.894531 33.552734 A 1.0001163 1.0001163 0 1 0 33.105469 34.447266 C 33.105469 34.447266 33.833333 36 35.5 36 L 37 36 C 37.166667 36 37.07421 35.9906 37.4375 36.28125 C 37.800788 36.571881 38.527778 37 39.5 37 C 40.472222 37 41.205446 36.609463 41.619141 36.308594 C 41.825988 36.158159 41.965974 36.045579 42.027344 36.007812 C 42.044205 35.997436 42.036826 36.000225 42.039062 35.998047 C 42.51737 35.994607 42.958879 35.92174 43.357422 35.779297 C 43.443258 35.868142 43.777996 36.219729 44.167969 36.804688 C 44.611042 37.469314 45 38.333333 45 39 C 45 39.527778 44.91854 39.859882 44.369141 40.240234 C 43.819742 40.620587 42.638889 41 40.5 41 C 39.666667 41 38.751201 40.782151 37.900391 40.539062 C 37.04958 40.295974 36.333333 40 35.5 40 C 34.333333 40 33.431831 40.30134 32.693359 40.552734 C 31.954888 40.804129 31.384722 41 30.625 41 C 29.719363 41 29.243511 40.807551 28.451172 40.548828 C 28.046222 40.4166 27.571669 40.27758 26.992188 40.171875 A 1.0001 1.0001 0 0 0 25.980469 38.990234 A 1.0001 1.0001 0 0 0 25.292969 39.292969 L 24.380859 40.205078 A 1.0001 1.0001 0 0 0 24.189453 40.396484 L 23.292969 41.292969 A 1.0001 1.0001 0 1 0 24.707031 42.707031 L 25.398438 42.015625 C 26.512985 42.054155 27.170835 42.235909 27.830078 42.451172 C 28.568989 42.692449 29.405637 43 30.625 43 C 31.740278 43 32.607612 42.695871 33.337891 42.447266 C 34.068169 42.19866 34.666667 42 35.5 42 C 35.666667 42 36.45042 42.204026 37.349609 42.460938 C 37.517559 42.508923 37.720182 42.549913 37.900391 42.597656 C 37.777871 43.092962 37.481916 43.751899 36.648438 44.064453 A 1.0001 1.0001 0 0 0 36.072266 44.628906 C 36.072266 44.628906 35.101724 46.923219 33.400391 48.199219 A 1.0003905 1.0003905 0 0 0 34.599609 49.800781 C 36.703294 48.223017 37.629556 46.032363 37.791016 45.636719 C 39.042932 44.947489 39.578918 43.786955 39.814453 42.960938 C 40.040267 42.981029 40.266799 43 40.5 43 C 42.861111 43 44.430258 42.629413 45.505859 41.884766 C 46.581461 41.140118 47 39.972222 47 39 C 47 37.666667 46.388924 36.530651 45.832031 35.695312 C 45.360853 34.988544 44.952758 34.553799 44.816406 34.412109 C 44.933172 34.116881 45 33.804812 45 33.5 C 45 32.932877 44.806885 32.402304 44.515625 32 L 47 32 A 1.0001 1.0001 0 0 0 48 31 L 48 26 A 1.0001 1.0001 0 0 0 47 25 L 44.962891 25 C 44.917254 24.490915 44.810731 23.909296 44.529297 23.316406 C 44.087875 22.386477 43.074392 21.595326 41.650391 21.208984 C 41.279039 20.817971 40.83866 20.190991 40.519531 19.552734 C 40.418805 19.351281 40.361629 19.166137 40.289062 18.972656 C 40.360439 18.978806 40.427 19 40.5 19 C 41.881 19 43 17.881 43 16.5 C 43 15.487 42.393344 14.618562 41.527344 14.226562 C 41.750344 13.836562 41.897078 13.4025 41.955078 12.9375 C 42.131078 12.9765 42.313 13 42.5 13 C 43.881 13 45 11.881 45 10.5 C 45 9.119 43.881 8 42.5 8 C 41.487 8 40.618563 8.6066563 40.226562 9.4726562 C 39.715563 9.1806563 39.131 9 38.5 9 C 38.327 9 38.162094 9.0267813 37.996094 9.0507812 C 37.601094 8.6477812 37.103734 8.3546875 36.552734 8.1796875 C 36.758734 7.8066875 36.895125 7.394125 36.953125 6.953125 C 38.116125 6.739125 39 5.725 39 4.5 C 39 3.119 37.881 2 36.5 2 C 35.624 2 34.855203 2.4527656 34.408203 3.1347656 C 34.117203 3.0567656 33.817 3 33.5 3 C 31.937 3 30.628687 4.0322656 30.179688 5.4472656 C 29.679688 5.1712656 29.112 5 28.5 5 C 28.273 5 28.052891 5.0254062 27.837891 5.0664062 C 27.728891 4.7344063 27.566469 4.4311094 27.355469 4.1621094 C 27.752469 3.7201094 28 3.141 28 2.5 C 28 1.119 26.881 0 25.5 0 z M 26.21875 13.679688 C 26.64975 14.878687 27.709859 15.764219 29.005859 15.949219 C 29.005859 15.966219 29 15.983 29 16 C 29 17.002 29.496 17.882734 30.25 18.427734 C 30.094 18.753734 30 19.115 30 19.5 C 30 20.881 31.119 22 32.5 22 C 33.881 22 35 20.881 35 19.5 C 35 18.859 34.752469 18.280891 34.355469 17.837891 C 34.594469 17.531891 34.772906 17.182828 34.878906 16.798828 C 35.520906 17.529828 36.451 18 37.5 18 C 37.671739 18 37.838652 17.982545 38.001953 17.955078 A 1.0001 1.0001 0 0 0 38 18 C 38 18.833333 38.315716 19.617761 38.730469 20.447266 C 39.145221 21.27677 39.675118 22.08918 40.292969 22.707031 A 1.0001 1.0001 0 0 0 40.835938 22.986328 C 42.088538 23.195095 42.468368 23.642243 42.720703 24.173828 C 42.838122 24.42119 42.90355 24.706694 42.943359 25 L 38 25 A 1.0001 1.0001 0 0 0 37 26 L 37 27 L 34 27 L 34 26 A 1.0001 1.0001 0 0 0 33 25 L 23 25 A 1.0001 1.0001 0 0 0 22 26 L 22 27 L 18.488281 27 C 18.804606 26.581243 19 26.065405 19 25.5 C 19 24.522 18.432281 23.683437 17.613281 23.273438 C 18.450281 22.633437 19 21.635 19 20.5 C 19 19.483 18.559188 18.575547 17.867188 17.935547 C 18.073187 17.973547 18.283 18 18.5 18 C 20.384 18 21.909328 16.508578 21.986328 14.642578 C 22.446328 14.865578 22.955 15 23.5 15 C 24.604 15 25.57775 14.478687 26.21875 13.679688 z M 24 27 L 27 27 A 1 1 0 0 0 28 28 A 1 1 0 0 0 29 27 L 32 27 L 32 27.832031 A 1.0001 1.0001 0 0 0 32 28.158203 L 32 30 L 24 30 L 24 28.167969 A 1.0001 1.0001 0 0 0 24 27.841797 L 24 27 z M 39 27 L 42 27 A 1 1 0 0 0 43 28 A 1 1 0 0 0 44 27.013672 A 1.0001 1.0001 0 0 0 44.158203 27 L 46 27 L 46 30 L 41.433594 30 C 41.273007 29.803018 41.074613 29.511177 40.742188 29.050781 C 40.374862 28.542052 39.822039 27.949304 39 27.431641 L 39 27 z"/></svg>